<?xml version="1.0" encoding="UTF-8" standalone="no"?>
<!DOCTYPE svg PUBLIC "-//W3C//DTD SVG 1.1//EN" "http://www.w3.org/Graphics/SVG/1.1/DTD/svg11.dtd">
<svg width="100%" height="100%" viewBox="0 0 1360 200" version="1.1" xmlns="http://www.w3.org/2000/svg" xmlns:xlink="http://www.w3.org/1999/xlink" xml:space="preserve" xmlns:serif="http://www.serif.com/" style="fill-rule:evenodd;clip-rule:evenodd;stroke-linejoin:round;stroke-miterlimit:2;">
    <g transform="matrix(1,0,0,1,-1081.767615,-491.140931)">
        <g id="Name---Logo-Banner" serif:id="Name &amp; Logo Banner" transform="matrix(0.230293,0,0,0.253486,953.927615,420.316466)">
            <rect x="555.118" y="279.402" width="5905.512" height="788.998" style="fill:none;"/>
            <g transform="matrix(1.379016,0,0,1.252843,593.329681,314.171358)">
                <path d="M266.598,446.649L262.561,437.457C255.08,420.421 250.252,407.215 249.038,400.469C246.925,388.721 250.838,382.207 260.007,382.207L264.744,382.207L265.399,378.115C267.107,367.432 275.074,359.833 284.5,357.752L284.5,357.345C294.357,359.094 302.832,366.849 304.601,377.908L305.256,382L309.993,382C319.162,382 323.075,388.514 320.962,400.262C319.748,407.008 314.92,420.214 307.439,437.25L303.311,446.649L314.967,446.649L315.455,443.25C318.373,422.939 327.852,405.02 343.624,390C355.384,378.801 366.939,372.399 383.5,367.908C389.345,366.323 393.139,366.068 406.5,366.362C423.248,366.731 428.516,367.682 440.861,372.564C453.652,377.624 465.468,387.004 472.901,398C483.336,413.437 486.473,434.174 481.469,454.652C473.964,485.372 443.731,507.302 412.527,504.661C385.713,502.391 368,484.233 368,459.016C368,432.245 387.331,416.608 411.281,424.005C421.94,427.297 426.613,433.487 427.86,445.966L428.513,452.5L433.666,447.389C441.886,439.234 445.965,429.295 445.988,417.365C446.02,400.851 436.819,390.369 418,385.48C408.371,382.978 392.085,383.879 381.729,387.487C358.59,395.549 340.142,416.306 335.948,439C335.312,442.441 334.645,445.801 334.428,446.661C347.784,447.075 358.5,458.048 358.5,471.504C358.5,484.622 348.315,495.38 335.428,496.296L335.874,497.528C340.024,509.005 356.217,526.522 370.834,535.345C378.789,540.147 392.077,545.29 399.196,546.321C402.763,546.838 402.967,546.7 405.082,542.331C407.839,536.636 412.004,534.009 418.282,534.004C424.534,533.999 428.799,535.868 432.716,540.33C443.186,552.254 432.828,568.268 413.719,569.7C395.486,571.067 373.263,563.496 358.035,550.729C349.174,543.299 340.774,533.618 333.217,522.124C328.513,514.97 321.52,500.961 320.225,496.359L303.472,496.359L308.789,509.115C319.01,533.635 320.47,542.684 315.077,548.077C312.853,550.3 311.228,551 308.284,551C304.544,551 304.375,551.15 303.214,555.49C301.739,561.006 295.903,567.703 290.5,570.081C289.524,570.511 286.954,571.769 284.5,571.794C282.379,571.814 280.344,570.66 279.5,570.288C274.097,567.91 268.261,561.213 266.786,555.697C265.625,551.357 265.456,551.207 261.716,551.207C258.772,551.207 257.147,550.507 254.923,548.284C249.53,542.891 250.99,533.842 261.211,509.322L266.615,496.359L249.831,496.359C248.697,500.734 241.559,515.067 236.783,522.331C229.226,533.825 220.826,543.506 211.965,550.936C196.737,563.703 174.514,571.274 156.281,569.907C137.172,568.475 126.814,552.461 137.284,540.537C141.201,536.075 145.466,534.206 151.718,534.211C157.996,534.216 162.161,536.843 164.918,542.538C167.033,546.907 167.237,547.045 170.804,546.528C177.923,545.497 191.211,540.354 199.166,535.552C213.783,526.729 229.976,509.212 234.126,497.735L234.628,496.348C221.246,495.964 210.5,484.979 210.5,471.504C210.5,457.786 221.637,446.649 235.355,446.649L235.519,446.649C235.261,445.532 234.643,442.405 234.052,439.207C229.858,416.513 211.41,395.756 188.271,387.694C177.915,384.086 161.629,383.185 152,385.687C133.181,390.576 123.98,401.058 124.012,417.572C124.035,429.502 128.114,439.441 136.334,447.596L141.487,452.707L142.14,446.173C143.387,433.694 148.06,427.504 158.719,424.212C182.669,416.815 202,432.452 202,459.223C202,484.44 184.287,502.598 157.473,504.868C126.269,507.509 96.036,485.579 88.531,454.859C83.527,434.381 86.664,413.644 97.099,398.207C104.532,387.211 116.348,377.831 129.139,372.771C141.484,367.889 146.752,366.938 163.5,366.569C176.861,366.275 180.655,366.53 186.5,368.115C203.061,372.606 214.616,379.008 226.376,390.207C242.148,405.227 251.627,423.146 254.545,443.457L255.003,446.649L266.598,446.649ZM57.282,419.24C65.999,421.427 71.861,426.62 74.365,434.373C76.41,440.706 76.415,443.448 74.392,450.259C72.735,455.837 67.366,462.207 64.322,462.207C62.439,462.207 62.947,463.741 67.299,471.181C71.957,479.148 84.172,490.993 93.882,496.962C111.073,507.528 128.189,511.715 151,510.936C167.929,510.357 177.062,508.298 190,502.142C197.539,498.555 198.217,498.382 196,500.611C191.457,505.177 176.797,513.178 167.539,516.144C152.717,520.892 142.173,522.488 125.5,522.509C112.698,522.525 108.955,522.148 99.956,519.936C73.851,513.521 54.586,503.05 39.624,487.145C27.352,474.1 22.184,461.225 23.298,446.467C24.534,430.079 33.57,419.827 47.738,418.735C50.907,418.491 55.202,418.718 57.282,419.24ZM512.718,419.033C504.001,421.22 498.139,426.413 495.635,434.166C493.59,440.499 493.585,443.241 495.608,450.052C497.265,455.63 502.634,462 505.678,462C507.561,462 507.053,463.534 502.701,470.974C498.043,478.941 485.828,490.786 476.118,496.755C458.927,507.321 441.811,511.508 419,510.729C402.071,510.15 392.938,508.091 380,501.935C372.461,498.348 371.783,498.175 374,500.404C378.543,504.97 393.203,512.971 402.461,515.937C417.283,520.685 427.827,522.281 444.5,522.302C457.302,522.318 461.045,521.941 470.044,519.729C496.149,513.314 515.414,502.843 530.376,486.938C542.648,473.893 547.816,461.018 546.702,446.26C545.466,429.872 536.43,419.62 522.262,418.528C519.093,418.284 514.798,418.511 512.718,419.033ZM106,273.832C141.579,278.34 181.331,297.574 213.677,325.932C226.122,336.843 241.22,355.248 249.315,369.377L251.99,374.047L248.258,375.877C246.206,376.883 243.591,379.113 242.447,380.832L240.368,383.957L232.232,377.708C217.623,366.487 200.342,359.021 181.29,355.698C169.853,353.704 142.909,353.743 129.128,355.773C123.283,356.635 112.425,358.715 105,360.396C89.583,363.887 73.429,365.061 64.981,363.306C52.422,360.696 42.115,352.955 37.181,342.427C34.753,337.247 34.502,335.621 34.525,325.207C34.556,311.566 36.248,306.295 43.745,296.484C51.391,286.477 62.735,279.091 75.686,275.687C81.602,274.131 99.647,273.027 106,273.832ZM464,273.625C428.421,278.133 388.669,297.367 356.323,325.725C343.878,336.636 328.78,355.041 320.685,369.17L318.01,373.84L321.742,375.67C323.794,376.676 326.409,378.906 327.553,380.625L329.632,383.75L337.768,377.501C352.377,366.28 369.658,358.814 388.71,355.491C400.147,353.497 427.091,353.536 440.872,355.566C446.717,356.428 457.575,358.508 465,360.189C480.417,363.68 496.571,364.854 505.019,363.099C517.578,360.489 527.885,352.748 532.819,342.22C535.247,337.04 535.498,335.414 535.475,325C535.444,311.359 533.752,306.088 526.255,296.277C518.609,286.27 507.265,278.884 494.314,275.48C488.398,273.924 470.353,272.82 464,273.625ZM126,113.077C162.97,124.927 214.802,179.888 244.006,238.207C261.122,272.388 269.496,302.848 270.708,335.337L271.29,350.968L268.405,353.337C266.819,354.641 264.191,357.133 262.567,358.876L259.614,362.045L256.3,350.376C252.19,335.901 241.659,314.397 232.257,301.28C228.541,296.095 220.775,286.914 215,280.877C194.059,258.985 172.404,243.245 135,222.728C110.786,209.446 100.612,202.732 91.322,193.908C78.48,181.71 73,170.732 73,157.207C73,140.146 84.801,119.946 98.5,113.558C104.828,110.607 117.597,110.384 126,113.077ZM444,112.87C407.03,124.72 355.198,179.681 325.994,238C308.878,272.181 300.504,302.641 299.292,335.13L298.71,350.761L301.595,353.13C303.181,354.434 305.809,356.926 307.433,358.669L310.386,361.838L313.7,350.169C317.81,335.694 328.341,314.19 337.743,301.073C341.459,295.888 349.225,286.707 355,280.67C375.941,258.778 397.596,243.038 435,222.521C459.214,209.239 469.388,202.525 478.678,193.701C491.52,181.503 497,170.525 497,157C497,139.939 485.199,119.739 471.5,113.351C465.172,110.4 452.403,110.177 444,112.87ZM262.683,10.248C268.641,5.982 277.061,2.502 284.5,2.468C291.939,2.433 301.113,5.598 307.317,10.041C323.161,21.386 332.397,45.56 333.664,79C334.847,110.22 330.222,141.03 315.498,200C299.057,265.846 292.67,299.257 288.53,341.066L287.88,347.632L285.5,347.632L285.5,347.839L282.12,347.839L281.47,341.273C277.33,299.464 270.943,266.053 254.502,200.207C239.778,141.237 235.153,110.427 236.336,79.207C237.603,45.767 246.839,21.593 262.683,10.248ZM68,210.123C114.186,220.458 174.176,257.098 213.038,298.707C223.384,309.784 223.172,309.941 209.972,300.981C165.649,270.896 126.74,252.831 87.757,244.237C80.199,242.57 73.184,241.207 72.168,241.207C71.15,241.207 69.79,242.372 69.138,243.803C65.129,252.601 56.507,258.207 46.982,258.207C32.458,258.207 22.683,249.685 22.672,237.013C22.662,225.65 31.611,213.106 41.775,210.235C49.077,208.173 59.096,208.13 68,210.123ZM502,209.916C455.814,220.251 395.824,256.891 356.962,298.5C346.616,309.577 346.828,309.734 360.028,300.774C404.351,270.689 443.26,252.624 482.243,244.03C489.801,242.363 496.816,241 497.832,241C498.85,241 500.21,242.165 500.862,243.596C504.871,252.394 513.493,258 523.018,258C537.542,258 547.317,249.478 547.328,236.806C547.338,225.443 538.389,212.899 528.225,210.028C520.923,207.966 510.904,207.923 502,209.916ZM155.618,39.591C175.649,49.191 203.401,87.222 220.28,128.207C228.17,147.363 238.767,180.486 243.564,200.984C244.945,206.882 246.285,212.607 246.542,213.707C247.146,216.284 246.292,214.488 237.748,195.207C217.499,149.513 194.842,115.1 166.745,87.368L157.284,78.029L151.892,80.772C141.378,86.12 129.551,83.951 121.717,75.237C112.252,64.71 112.89,52.755 123.412,43.493C132.696,35.321 143.88,33.966 155.618,39.591ZM414.382,39.384C394.351,48.984 366.599,87.015 349.72,128C341.83,147.156 331.233,180.279 326.436,200.777C325.055,206.675 323.715,212.4 323.458,213.5C322.854,216.077 323.708,214.281 332.252,195C352.501,149.306 375.158,114.893 403.255,87.161L412.716,77.822L418.108,80.565C428.622,85.913 440.449,83.744 448.283,75.03C457.748,64.503 457.11,52.548 446.588,43.286C437.304,35.114 426.12,33.759 414.382,39.384Z" style="fill:white;"/>
            </g>
            <g transform="matrix(0.550192,0,0,0.508072,3273.28835,-810.262268)">
                <g transform="matrix(1200,0,0,1200,5750.049213,3349.82468)">
                </g>
                <text x="1509.62px" y="3349.825px" style="font-family:'Georgia', serif;font-size:1200px;fill:white;">Masters</text>
            </g>
            <g transform="matrix(7.32696,0,0,6.943259,1496.071306,889.605379)">
                <text x="0px" y="0px" style="font-family:'Georgia', serif;font-size:87.81px;fill:white;">I<tspan x="42.118px 106.402px 185.865px 255.381px " y="0px 0px 0px 0px ">CHRA</tspan></text>
            </g>
        </g>
    </g>
</svg>
